<?xml version="1.0" encoding="UTF-8" standalone="no"?>
<!-- Created with Inkscape (http://www.inkscape.org/) -->

<svg
   width="250"
   height="250"
   viewBox="0 0 250 250"
   version="1.1"
   id="svg1"
   inkscape:version="1.3 (0e150ed6c4, 2023-07-21)"
   sodipodi:docname="appicon.svg"
   xml:space="preserve"
   xmlns:inkscape="http://www.inkscape.org/namespaces/inkscape"
   xmlns:sodipodi="http://sodipodi.sourceforge.net/DTD/sodipodi-0.dtd"
   xmlns="http://www.w3.org/2000/svg"
   xmlns:svg="http://www.w3.org/2000/svg"><sodipodi:namedview
     id="namedview1"
     pagecolor="#ffffff"
     bordercolor="#000000"
     borderopacity="0.25"
     inkscape:showpageshadow="2"
     inkscape:pageopacity="0.0"
     inkscape:pagecheckerboard="false"
     inkscape:deskcolor="#d1d1d1"
     inkscape:document-units="mm"
     showgrid="false"
     inkscape:clip-to-page="false"
     inkscape:zoom="2.9255612"
     inkscape:cx="145.9549"
     inkscape:cy="131.76959"
     inkscape:window-width="1920"
     inkscape:window-height="1017"
     inkscape:window-x="-8"
     inkscape:window-y="-8"
     inkscape:window-maximized="1"
     inkscape:current-layer="layer3"><inkscape:grid
       id="grid17"
       units="mm"
       originx="0"
       originy="0"
       spacingx="0.99999995"
       spacingy="1"
       empcolor="#0099e5"
       empopacity="0.30196078"
       color="#0099e5"
       opacity="0.14901961"
       empspacing="5"
       dotted="false"
       gridanglex="30"
       gridanglez="30"
       visible="false" /></sodipodi:namedview><defs
     id="defs1"><inkscape:path-effect
       effect="powerstroke"
       id="path-effect15"
       is_visible="true"
       lpeversion="1.3"
       scale_width="1"
       interpolator_type="CubicBezierJohan"
       interpolator_beta="0.2"
       start_linecap_type="zerowidth"
       end_linecap_type="zerowidth"
       offset_points="0,11.39262"
       linejoin_type="extrp_arc"
       miter_limit="4"
       not_jump="false"
       sort_points="true"
       message="&lt;b&gt;Ctrl+kliknij&lt;/b&gt; istniejący węzeł i przesuń go" /><inkscape:path-effect
       effect="powerstroke"
       id="path-effect10"
       is_visible="true"
       lpeversion="1.3"
       scale_width="1"
       interpolator_type="CubicBezierJohan"
       interpolator_beta="0.2"
       start_linecap_type="zerowidth"
       end_linecap_type="zerowidth"
       offset_points="0.052239901,11.39262"
       linejoin_type="extrp_arc"
       miter_limit="4"
       not_jump="false"
       sort_points="true"
       message="&lt;b&gt;Ctrl+kliknij&lt;/b&gt; istniejący węzeł i przesuń go" /><inkscape:path-effect
       effect="powerstroke"
       id="path-effect6"
       is_visible="true"
       lpeversion="1.3"
       scale_width="1"
       interpolator_type="CubicBezierJohan"
       interpolator_beta="0.2"
       start_linecap_type="zerowidth"
       end_linecap_type="zerowidth"
       offset_points="0.44752076,-11.392129"
       linejoin_type="extrp_arc"
       miter_limit="4"
       not_jump="false"
       sort_points="true"
       message="&lt;b&gt;Ctrl+kliknij&lt;/b&gt; istniejący węzeł i przesuń go" /><inkscape:path-effect
       effect="powerstroke"
       id="path-effect19"
       is_visible="true"
       lpeversion="1.3"
       scale_width="1"
       interpolator_type="CubicBezierJohan"
       interpolator_beta="0.2"
       start_linecap_type="zerowidth"
       end_linecap_type="zerowidth"
       offset_points="0,0"
       linejoin_type="extrp_arc"
       miter_limit="4"
       not_jump="false"
       sort_points="true"
       message="&lt;b&gt;Ctrl+kliknij&lt;/b&gt; istniejący węzeł i przesuń go" /><inkscape:path-effect
       effect="powerstroke"
       id="path-effect17"
       is_visible="true"
       lpeversion="1.3"
       scale_width="1"
       interpolator_type="CubicBezierJohan"
       interpolator_beta="0.2"
       start_linecap_type="zerowidth"
       end_linecap_type="zerowidth"
       offset_points="0,0"
       linejoin_type="extrp_arc"
       miter_limit="4"
       not_jump="false"
       sort_points="true"
       message="&lt;b&gt;Ctrl+kliknij&lt;/b&gt; istniejący węzeł i przesuń go" /><linearGradient
       id="swatch7"
       inkscape:swatch="solid"><stop
         style="stop-color:#000000;stop-opacity:1;"
         offset="0"
         id="stop8" /></linearGradient><inkscape:path-effect
       effect="fill_between_many"
       method="bsplinespiro"
       autoreverse="false"
       close="false"
       join="false"
       linkedpaths="#path17,0,1"
       id="path-effect18" /><inkscape:path-effect
       effect="fill_between_many"
       method="bsplinespiro"
       autoreverse="false"
       close="false"
       join="false"
       linkedpaths="#path18,0,1"
       id="path-effect20" /><clipPath
       clipPathUnits="userSpaceOnUse"
       id="clipPath5"><g
         inkscape:label="Clip"
         id="use5"><rect
           style="fill:#ffffff;fill-opacity:1;stroke:#000000;stroke-width:4.51762;stroke-linecap:round;stroke-linejoin:round;stroke-dasharray:none;stroke-opacity:1"
           id="rect5"
           width="141.3027"
           height="179.04747"
           x="33.678814"
           y="53.249287"
           ry="0"
           transform="matrix(0.99992208,-0.0124837,-0.01204377,0.99992748,0,0)" /></g></clipPath><inkscape:path-effect
       effect="fill_between_many"
       method="bsplinespiro"
       autoreverse="false"
       close="false"
       join="false"
       linkedpaths="#path6,0,1"
       id="path-effect7" /><inkscape:path-effect
       effect="fill_between_many"
       method="bsplinespiro"
       autoreverse="false"
       close="false"
       join="false"
       linkedpaths="#path10,0,1"
       id="path-effect11" /><inkscape:path-effect
       effect="fill_between_many"
       method="bsplinespiro"
       autoreverse="false"
       close="false"
       join="false"
       linkedpaths="#path15,0,1"
       id="path-effect16" /></defs><g
     inkscape:groupmode="layer"
     id="layer1"
     inkscape:label="noteblock"
     transform="matrix(0.84026704,-0.22779288,0.23191316,0.8297138,-18.507966,51.626614)"><path
       id="path25"
       style="opacity:1;fill:#ffffff;fill-opacity:1;fill-rule:nonzero;stroke:#000000;stroke-width:5.77347;stroke-linecap:round;stroke-linejoin:round;stroke-dasharray:none;stroke-opacity:1;paint-order:normal"
       d="m 172.56285,229.6206 7.11822,-11.27697 2.15864,-179.036404 -141.282716,1.751147 -7.40842,11.769376 -1.310786,177.730871 z"
       sodipodi:nodetypes="ccccccc"
       inkscape:label="contour" /><path
       style="opacity:1;fill:none;fill-opacity:1;fill-rule:nonzero;stroke:#000000;stroke-width:5.77347;stroke-linecap:round;stroke-linejoin:round;stroke-dasharray:none;stroke-opacity:1;paint-order:normal"
       d="m 39.285935,219.24931 129.335805,-0.4592"
       id="path26"
       sodipodi:nodetypes="cc" /><path
       style="opacity:1;fill:none;fill-opacity:1;stroke:#000000;stroke-width:5.77347;stroke-linecap:round;stroke-linejoin:round;stroke-dasharray:none;stroke-opacity:1"
       d="M 39.287078,219.24516 40.903817,56.80125"
       id="path9"
       sodipodi:nodetypes="cc" /><path
       style="opacity:1;fill:none;stroke:#000000;stroke-width:5.77347;stroke-linecap:round;stroke-linejoin:round;stroke-dasharray:none;stroke-opacity:1;paint-order:normal"
       d="M 51.568251,40.827524 C 51.726745,34.122656 55.801759,23.779199 62.435652,23.886927 69.069546,23.994655 72.65261,34.462473 72.494116,41.167342 72.335622,47.87221 68.260607,58.215667 61.626714,58.107938"
       id="path16"
       sodipodi:nodetypes="caac"
       inkscape:label="loop1" /><path
       style="fill:none;stroke:#000000;stroke-width:5.77347;stroke-linecap:round;stroke-linejoin:round;stroke-dasharray:none;stroke-opacity:1;paint-order:normal"
       d="m 83.751393,39.985109 c 0.15849,-6.704868 4.23351,-17.048325 10.8674,-16.940597 6.633887,0.107728 10.216957,10.575546 10.058457,17.280415 -0.15849,6.704868 -4.2335,17.048325 -10.867397,16.940596"
       id="path16-8"
       sodipodi:nodetypes="caac"
       inkscape:label="loop2" /><path
       style="fill:none;stroke:#000000;stroke-width:5.77347;stroke-linecap:round;stroke-linejoin:round;stroke-dasharray:none;stroke-opacity:1;paint-order:normal"
       d="m 116.45529,39.229887 c 0.15849,-6.704868 4.23351,-17.048325 10.8674,-16.940597 6.63389,0.107728 10.21696,10.575546 10.05846,17.280415 -0.15849,6.704868 -4.23351,17.048325 -10.8674,16.940596"
       id="path16-5"
       sodipodi:nodetypes="caac"
       inkscape:label="loop3" /><path
       style="fill:none;stroke:#000000;stroke-width:5.77347;stroke-linecap:round;stroke-linejoin:round;stroke-dasharray:none;stroke-opacity:1;paint-order:normal"
       d="m 150.34474,39.387435 c 0.15849,-6.704868 4.23351,-17.048325 10.8674,-16.940597 6.63389,0.107728 10.21696,10.575546 10.05846,17.280415 -0.15849,6.704868 -4.23351,17.048325 -10.8674,16.940596"
       id="path16-4"
       sodipodi:nodetypes="caac"
       inkscape:label="loop4" /><path
       style="display:inline;fill:#4e9231;stroke-width:0.999997;fill-opacity:1"
       d="m 103.28124,195.93066 c -1.64132,-0.29262 -5.374758,-1.82824 -5.748392,-2.36441 -0.59148,-0.84879 4.204602,-4.35835 7.788282,-5.69908 4.96584,-1.85787 10.24528,-1.53704 14.57502,0.88564 l 1.99245,1.11487 -0.93233,0.86027 c -1.51591,1.39866 -6.39639,3.83441 -9.20176,4.59241 -2.89399,0.78194 -6.18209,1.01874 -8.47326,0.61034 z m 35.26509,-2.7063 c -3.56776,-0.23294 -7.06487,-0.96155 -10.94733,-2.28108 -3.32382,-1.12972 -3.76465,-1.46433 -3.21826,-2.44302 0.25576,-0.45814 0.79054,-0.39855 2.94254,0.32787 4.00335,1.35127 7.36339,1.8194 11.47827,1.59919 5.33824,-0.28593 9.18455,-1.64195 15.68659,-5.53125 0.14723,-0.0883 0.69547,0.57529 1.21827,1.47416 0.92283,1.58679 0.92993,1.65173 0.24358,2.23216 -3.40683,2.88108 -11.43007,5.01188 -17.40368,4.62203 z m -17.40792,-7.6558 c -3.68313,-3.85738 -5.85549,-9.57239 -5.22079,-13.73475 0.48549,-3.1839 0.70111,-3.45672 2.09425,-2.64981 1.67453,0.96998 4.64206,4.74241 5.57983,7.09333 1.13371,2.84234 1.28459,6.69524 0.35681,9.11532 -0.40637,1.06006 -0.82413,1.93211 -0.92833,1.93784 -0.10402,0.006 -0.95099,-0.78715 -1.88177,-1.76193 z m -25.772209,1.84563 c -3.952135,-0.54249 -8.033577,-2.37224 -10.031111,-4.49707 l -1.11223,-1.18305 1.694043,-0.85458 c 5.744506,-2.89788 12.659008,-3.13075 17.596447,-0.59263 2.37036,1.21849 5.46029,4.13401 4.96608,4.68585 -1.09229,1.21965 -9.971267,2.87278 -13.113229,2.44148 z m 14.880249,-6.32005 c -4.25268,-4.52766 -6.73748,-9.64223 -7.05306,-14.51766 -0.19258,-2.97526 0.61482,-7.18341 1.38558,-7.22594 0.20171,-0.0111 1.4902,1.00176 2.86327,2.25081 5.48342,4.98803 7.75665,12.00052 5.96347,18.39602 -0.82717,2.95024 -1.27302,3.10498 -3.15926,1.09677 z m -26.903211,-5.25048 c -4.26397,-0.78868 -8.962861,-3.70553 -10.778522,-6.69082 -0.456646,-0.75082 -0.373806,-0.86677 0.964367,-1.34315 2.384442,-0.84878 7.566615,-1.3488 10.066421,-0.97131 1.259944,0.19032 3.413472,0.8317 4.785553,1.42544 2.887101,1.24926 8.051841,5.359 7.50378,5.97101 -1.225162,1.36801 -8.676052,2.32381 -12.541599,1.60883 z m 13.038336,-5.4161 c -1.897485,-2.3213 -3.770641,-5.69136 -4.59556,-8.26803 -1.051349,-3.28391 -1.227248,-8.27849 -0.386311,-10.96851 1.041277,-3.33086 1.403205,-3.47203 3.453111,-1.34709 5.375295,5.57203 7.242315,13.29718 4.725156,19.55111 -0.576043,1.43122 -1.233798,2.61248 -1.461669,2.62502 -0.227924,0.0121 -1.008517,-0.70411 -1.734737,-1.59253 z M 74.70965,162.13882 c -4.321979,-1.22037 -9.073344,-4.83175 -11.408583,-8.67131 -0.763986,-1.25616 -0.341285,-1.61453 2.515164,-2.13233 4.342981,-0.7873 9.737021,0.99998 14.137946,4.68452 3.230364,2.70451 5.491084,5.57652 4.786247,6.0804 -1.008559,0.72105 -7.525216,0.7462 -10.030774,0.0387 z m 9.53972,-4.35389 c -1.972499,-3.39152 -3.018162,-7.09937 -3.226156,-11.43555 -0.227144,-4.74303 0.425838,-7.47209 2.443564,-10.21256 1.119355,-1.52032 1.211294,-1.56647 1.778409,-0.89235 1.422474,1.6907 3.287584,5.44784 3.983583,8.02459 0.88001,3.25813 0.845123,6.84974 -0.09526,9.80492 -0.659919,2.07375 -3.081984,6.10598 -3.687803,6.13935 -0.194868,0.0106 -0.733174,-0.63205 -1.196333,-1.4284 z m -12.792531,-8.15339 c -3.138997,-0.45759 -6.148959,-2.01975 -9.243554,-4.79729 -3.033218,-2.72247 -6.371109,-7.10495 -5.971075,-7.83976 0.377214,-0.69287 4.692326,-0.70749 7.406948,-0.0251 4.787047,1.20333 9.847728,5.0634 12.477364,9.51718 0.775721,1.3138 1.329472,2.47346 1.230572,2.57697 -0.418735,0.43845 -4.255398,0.80783 -5.900255,0.56799 z m 3.191896,-8.17568 c -1.958816,-4.09395 -2.557164,-6.63845 -2.624511,-11.16067 -0.05178,-3.47719 0.07932,-4.29031 1.065277,-6.60652 0.618366,-1.45273 1.458898,-2.97941 1.867858,-3.39261 0.724689,-0.73231 0.77676,-0.70478 2.057028,1.08778 3.302804,4.62434 4.582436,10.66822 3.328672,15.72265 -0.64362,2.59485 -2.877254,6.60348 -3.901012,7.00108 -0.243388,0.0942 -1.050283,-1.09878 -1.793312,-2.65171 z m -9.174866,-5.52261 c -3.236856,-0.95951 -7.121313,-4.01591 -9.683801,-7.6195 -1.459369,-2.05233 -3.347812,-6.27032 -3.423646,-7.64711 -0.05326,-0.96613 0.03011,-1.01496 1.442681,-0.84997 4.607254,0.53804 11.17761,4.92519 14.053433,9.38375 1.762954,2.73323 2.774076,6.11333 1.994879,6.66873 -0.766193,0.54613 -2.663737,0.57393 -4.383546,0.0641 z m 2.066168,-10.79472 c -2.762358,-4.1695 -4.150935,-10.15017 -3.431761,-14.78071 0.395567,-2.54703 2.311403,-7.3365 3.051855,-7.62949 0.695486,-0.27517 3.426333,3.63176 4.437717,6.3489 1.781875,4.78705 1.405344,10.9564 -0.924004,15.13971 -1.517443,2.72519 -1.870168,2.82892 -3.133807,0.92159 z M 56.852,117.49097 c -6.256698,-5.12953 -9.556873,-12.15659 -8.863155,-18.872359 0.153157,-1.483049 0.428047,-2.864539 0.61081,-3.069989 1.03724,-1.166076 6.080979,2.756962 8.828788,6.867048 3.436591,5.14034 5.097697,12.28712 3.62995,15.61716 -0.339525,0.77031 -0.806028,1.47089 -1.036609,1.55684 -0.230537,0.0861 -1.657001,-0.85846 -3.169784,-2.0987 z"
       id="path1"
       inkscape:label="wheat"
       transform="matrix(1.1062713,0.30372006,-0.3092137,1.1203421,36.438488,-52.21823)" /></g><g
     inkscape:groupmode="layer"
     id="layer3"
     inkscape:label="pen"
     transform="rotate(25.651919,217.64582,81.262321)"><ellipse
       style="opacity:1;fill:#164900;fill-opacity:1;fill-rule:nonzero;stroke:none;stroke-width:5;stroke-linecap:round;stroke-linejoin:round;stroke-dasharray:none;stroke-opacity:1;paint-order:normal"
       id="path27"
       cx="225.21468"
       cy="-36.307079"
       rx="8.3990593"
       ry="1.6571892"
       transform="rotate(-2.296895,2542.8763,393.50302)" /><path
       id="rect17"
       style="opacity:1;fill:#2d6e12;fill-opacity:1;stroke:#000000;stroke-width:5;stroke-linecap:round;stroke-linejoin:round"
       d="m 202.01253,77.875123 c 0,0 3.75986,1.873171 7.51992,1.873171 3.78137,0 7.51993,-1.873171 7.51993,-1.873171 v 94.741337 c 0,0 -3.75841,1.87317 -7.51993,1.87317 -3.79173,0 -7.51992,-1.87317 -7.51992,-1.87317 z"
       sodipodi:nodetypes="csccscc" /><path
       id="rect17-1"
       style="fill:#164900;fill-opacity:1;stroke:#000000;stroke-width:5;stroke-linecap:round;stroke-linejoin:round;stroke-opacity:1"
       d="M 199.5305,78.450865 V 58.003294 c 0,0 4.32843,2.46273 9.90636,2.46273 5.57793,0 9.90636,-2.46273 9.90636,-2.46273 v 20.447571 c 0,0 -4.30142,2.779545 -9.90636,2.779545 -5.60494,0 -9.90636,-2.779545 -9.90636,-2.779545 z"
       sodipodi:nodetypes="cczcczc" /><path
       style="opacity:1;fill:none;fill-opacity:1;fill-rule:nonzero;stroke:#000000;stroke-width:5;stroke-linecap:round;stroke-linejoin:round;stroke-dasharray:none;stroke-opacity:1;paint-order:normal"
       d="m 217.10661,172.69432 -7.63338,25.16549 -7.47283,-25.1655"
       id="path21"
       sodipodi:nodetypes="ccc" /><path
       style="opacity:1;fill:#ffffff;fill-opacity:1;fill-rule:nonzero;stroke:#000000;stroke-width:5;stroke-linecap:round;stroke-linejoin:round;stroke-dasharray:none;stroke-opacity:1;paint-order:normal"
       d="m 199.5834,56.134718 c 0,0 5.45248,-2.024233 9.9701,-2.024233 5.46777,0 9.72841,2.024233 9.72841,2.024233"
       id="path22"
       sodipodi:nodetypes="ccc" /><path
       style="opacity:1;fill:none;fill-opacity:1;fill-rule:nonzero;stroke:#000000;stroke-width:5;stroke-linecap:round;stroke-linejoin:round;stroke-dasharray:none;stroke-opacity:1;paint-order:normal"
       d="m 199.52297,63.264854 h -8.39906 v 42.954086"
       id="path23" /></g></svg>
